<svg width="144" height="32" viewBox="0 0 144 32" fill="none" xmlns="http://www.w3.org/2000/svg">
<path d="M12.024 15.472L13.176 19H16.872L10.824 1.504H6.84L0.624 19H4.296L5.472 15.472H12.024ZM11.04 12.472H6.48L8.76 5.632L11.04 12.472ZM17.64 6.04V19H21V12.112C21 10.144 21.984 9.16 23.952 9.16C24.2507 9.16 24.6027 9.192 25.008 9.256V5.848C24.88 5.832 24.744 5.824 24.6 5.824C23.8314 5.824 23.1324 6.065 22.503 6.547C21.8727 7.02972 21.3717 7.70872 21 8.584V6.04H17.64ZM36.792 10.888C36.6719 9.30333 36.1179 8.06333 35.13 7.168C34.1413 6.272 32.8313 5.824 31.2 5.824C29.2566 5.824 27.7506 6.432 26.682 7.648C25.614 8.86331 25.08 10.5753 25.08 12.784C25.08 14.921 25.612 16.583 26.676 17.77C27.7409 18.958 29.2329 19.552 31.152 19.552C32.725 19.552 34.019 19.099 35.034 18.193C36.0501 17.286 36.6361 16.059 36.792 14.512H33.576C33.3719 15.3524 33.0849 15.9504 32.715 16.306C32.3446 16.662 31.8236 16.84 31.152 16.84C30.3004 16.84 29.6354 16.482 29.157 15.766C28.679 15.0505 28.44 14.0565 28.44 12.784C28.44 11.5012 28.656 10.4532 29.088 9.64C29.4805 8.904 30.1765 8.536 31.176 8.536C31.8583 8.536 32.3813 8.715 32.745 9.073C33.1065 9.42881 33.3835 10.0338 33.576 10.888H36.792ZM37.944 1.504V19H41.304V11.224C41.304 10.4805 41.547 9.87047 42.033 9.394C42.5185 8.918 43.1395 8.68 43.896 8.68C44.632 8.68 45.192 8.944 45.576 9.472C45.832 9.82646 45.96 10.3625 45.96 11.08V19H49.32V10.312C49.32 8.7133 48.88 7.5453 48 6.808C47.2178 6.152 46.2498 5.824 45.096 5.824C43.4728 5.824 42.2088 6.52 41.304 7.912V1.504H37.944ZM54.768 6.04H51.408V19H54.768V6.04ZM54.768 1.504H51.408V4.504H54.768V1.504ZM62.496 6.304H60.624V2.824H57.264V6.304H55.608V8.536H57.264V16.504C57.264 18.536 58.36 19.552 60.552 19.552C61.276 19.552 61.924 19.464 62.496 19.288V16.936C62.16 16.984 61.904 17.008 61.728 17.008C61.2826 17.008 60.9876 16.916 60.843 16.732C60.697 16.5462 60.624 16.1662 60.624 15.592V8.536H62.496V6.304ZM74.544 13.576C74.56 13.384 74.568 13.192 74.568 13C74.568 11.7102 74.4 10.5742 74.064 9.592C73.6318 8.41552 72.9228 7.49352 71.937 6.826C70.9505 6.158 69.8035 5.824 68.496 5.824C66.6376 5.824 65.1726 6.453 64.101 7.711C63.031 8.96709 62.496 10.6821 62.496 12.856C62.496 14.9315 63.025 16.5665 64.083 17.761C65.1405 18.955 66.5875 19.552 68.424 19.552C69.8785 19.552 71.1485 19.173 72.234 18.415C73.3226 17.6548 74.0526 16.6338 74.424 15.352H71.112C70.9077 15.8688 70.5817 16.2698 70.134 16.555C69.685 16.841 69.155 16.984 68.544 16.984C67.5733 16.984 66.8373 16.608 66.336 15.856C66.0589 15.4297 65.8989 14.6697 65.856 13.576H74.544ZM65.904 11.344C66.1174 9.376 66.9654 8.392 68.448 8.392C70.0198 8.392 70.8918 9.376 71.064 11.344H65.904ZM86.64 10.888C86.5199 9.30333 85.9659 8.06333 84.978 7.168C83.9893 6.272 82.6793 5.824 81.048 5.824C79.1046 5.824 77.5986 6.432 76.53 7.648C75.462 8.86331 74.928 10.5753 74.928 12.784C74.928 14.921 75.46 16.583 76.524 17.77C77.5889 18.958 79.0809 19.552 81 19.552C82.573 19.552 83.867 19.099 84.882 18.193C85.8981 17.286 86.4841 16.059 86.64 14.512H83.424C83.2199 15.3524 82.9329 15.9504 82.563 16.306C82.1926 16.662 81.6716 16.84 81 16.84C80.1484 16.84 79.4834 16.482 79.005 15.766C78.527 15.0505 78.288 14.0565 78.288 12.784C78.288 11.5012 78.504 10.4532 78.936 9.64C79.3285 8.904 80.0245 8.536 81.024 8.536C81.7063 8.536 82.2293 8.715 82.593 9.073C82.9545 9.42881 83.2315 10.0338 83.424 10.888H86.64ZM93.504 6.304H91.632V2.824H88.272V6.304H86.616V8.536H88.272V16.504C88.272 18.536 89.368 19.552 91.56 19.552C92.284 19.552 92.932 19.464 93.504 19.288V16.936C93.168 16.984 92.912 17.008 92.736 17.008C92.2906 17.008 91.9956 16.916 91.851 16.732C91.705 16.5462 91.632 16.1662 91.632 15.592V8.536H93.504V6.304ZM104.04 11.464H112.416V8.464H104.04V4.504H113.088V1.504H100.44V19H113.52V16H104.04V11.464ZM118.104 1.504H114.744V19H118.104V1.504ZM123.576 6.04H120.216V19H123.576V6.04ZM123.576 1.504H120.216V4.504H123.576V1.504ZM131.304 6.304H129.432V2.824H126.072V6.304H124.416V8.536H126.072V16.504C126.072 18.536 127.168 19.552 129.36 19.552C130.084 19.552 130.732 19.464 131.304 19.288V16.936C130.968 16.984 130.712 17.008 130.536 17.008C130.091 17.008 129.796 16.916 129.651 16.732C129.505 16.5462 129.432 16.1662 129.432 15.592V8.536H131.304V6.304ZM143.352 13.576C143.368 13.384 143.376 13.192 143.376 13C143.376 11.7102 143.208 10.5742 142.872 9.592C142.44 8.41552 141.731 7.49352 140.745 6.826C139.758 6.158 138.611 5.824 137.304 5.824C135.446 5.824 133.981 6.453 132.909 7.711C131.839 8.96709 131.304 10.6821 131.304 12.856C131.304 14.9315 131.833 16.5665 132.891 17.761C133.949 18.955 135.396 19.552 137.232 19.552C138.686 19.552 139.956 19.173 141.042 18.415C142.131 17.6548 142.861 16.6338 143.232 15.352H139.92C139.716 15.8688 139.39 16.2698 138.942 16.555C138.493 16.841 137.963 16.984 137.352 16.984C136.381 16.984 135.645 16.608 135.144 15.856C134.867 15.4297 134.707 14.6697 134.664 13.576H143.352ZM134.712 11.344C134.925 9.376 135.773 8.392 137.256 8.392C138.828 8.392 139.7 9.376 139.872 11.344H134.712Z" fill="#312E81"/>
</svg>
